<?xml version="1.0" encoding="UTF-8"?>
<svg id="Calque_1" data-name="Calque 1" xmlns="http://www.w3.org/2000/svg" viewBox="0 0 726 466">
  <defs>
    <style>
      .cls-1 {
        fill: #fff;
      }
    </style>
  </defs>
  <path class="cls-1" d="M726,0v466H0V0h726ZM572,140.5v-49l-1.5-1.5h-43l-1.5,1.5v49c0,1.76-5.46,3.43-7.27,2.29l-37.25-17.68-19.48,40.87c6.2,3.95,36.08,14.41,38.9,18.63.58.87.98,1.83,1.03,2.89,0,1.93-1.36,3.14-2.41,4.52-3.49,4.6-28.5,26.46-28.5,28.48l31.48,31.48,30.13-29.85c2.17-2.22,8.37-.76,8.37,2.37v46.5h16v-46.5c0-2.45,4.76-4.49,6.97-3.02l31.39,30.45,31.62-31.43c0-2.01-25.03-23.86-28.5-28.48-1.64-2.18-3.45-4.11-2.02-7.02l39.51-19.49-19.54-40.48-38.18,17.78c-1.9.91-5.73-.45-6.26-2.31ZM127,194h-35.5l-1.5,1.5v178l1.5,1.5h35.5c-1.14-12.33,5.73-4.09,12.02-1.52,30.61,12.52,67.47-4.47,78.73-35.23,17.24-47.13-12.8-96.86-65.28-92.28-9.79.85-16.46,6.34-25.46,8.04v-60ZM360,194h-35.5l-1.5,1.5v58.5c-4.36.25-7.56-3.24-11.73-4.77-30.85-11.35-66.66,4.58-78.45,35.09-18.22,47.11,13.35,99.98,66.58,92.58,9.11-1.27,15.45-6,23.59-8.89l1.01,7h36v-181ZM420.78,246.28c-36.68,4.41-60.14,40.67-54.66,76.1,9.15,59.06,85.67,73.99,120.84,29.12l-24.46-24.48c-20.02,29.28-63.34,17.23-59.49-20.51,2.36-23.05,30.14-34.42,48.49-20.51,1.87,1.42,7.14,8.23,8.86,7.93l23.56-24.29c-16.7-18.98-37.98-26.38-63.15-23.36Z"/>
  <path d="M572,140.5c.52,1.86,4.36,3.22,6.26,2.31l38.18-17.78,19.54,40.48-39.51,19.49c-1.44,2.91.37,4.83,2.02,7.02,3.48,4.62,28.5,26.47,28.5,28.48l-31.62,31.43-31.39-30.45c-2.22-1.47-6.97.57-6.97,3.02v46.5h-16v-46.5c0-3.13-6.2-4.59-8.37-2.37l-30.13,29.85-31.48-31.48c0-2.01,25-23.87,28.5-28.48,1.05-1.38,2.4-2.59,2.41-4.52-.05-1.06-.45-2.02-1.03-2.89-2.82-4.22-32.69-14.68-38.9-18.63l19.48-40.87,37.25,17.68c1.81,1.15,7.27-.53,7.27-2.29v-49l1.5-1.5h43l1.5,1.5v49Z"/>
  <path d="M127,194v60c9-1.7,15.68-7.18,25.46-8.04,52.48-4.57,82.53,45.16,65.28,92.28-11.26,30.76-48.12,47.76-78.73,35.23-6.29-2.57-13.16-10.81-12.02,1.52h-35.5l-1.5-1.5v-178l1.5-1.5h35.5ZM149.74,279.24c-33.75,5.28-30.23,66.99,6.71,65.79,40.23-1.31,38.13-72.8-6.71-65.79Z"/>
  <path d="M360,194v181h-36l-1.01-7c-8.14,2.9-14.48,7.63-23.59,8.89-53.23,7.4-84.8-45.46-66.58-92.58,11.8-30.51,47.61-46.44,78.45-35.09,4.16,1.53,7.37,5.02,11.73,4.77v-58.5l1.5-1.5h35.5ZM288.76,279.26c-33.72,4.89-30.71,67.02,6.68,65.77,39.71-1.32,38.43-72.31-6.68-65.77Z"/>
  <path d="M420.78,246.28c25.17-3.02,46.45,4.37,63.15,23.36l-23.56,24.29c-1.72.3-6.99-6.51-8.86-7.93-18.35-13.91-46.13-2.54-48.49,20.51-3.86,37.74,39.47,49.79,59.49,20.51l24.46,24.48c-35.17,44.87-111.69,29.94-120.84-29.12-5.49-35.43,17.98-71.69,54.66-76.1Z"/>
  <path class="cls-1" d="M149.74,279.24c44.83-7.01,46.93,64.47,6.71,65.79-36.93,1.21-40.45-60.51-6.71-65.79Z"/>
  <path class="cls-1" d="M288.76,279.26c45.11-6.54,46.39,64.44,6.68,65.77-37.39,1.25-40.41-60.88-6.68-65.77Z"/>
</svg>