<?xml version="1.0" encoding="UTF-8"?><svg id="Layer_2" xmlns="http://www.w3.org/2000/svg" viewBox="0 0 648 106.64"><defs><style>.cls-1{fill:#010101;}.cls-2,.cls-3{fill:#ffc222;}.cls-3{font-family:ArialMT, Arial;font-size:6.54px;}</style></defs><g id="Layer_1-2"><g><g><path class="cls-2" d="M20.72,29.6h27.72c1.05,0,1.96-.71,2.21-1.73L56.83,2.89c.17-.68,.01-1.4-.42-1.95-.43-.55-1.09-.88-1.8-.88H26.9c-1.05,0-1.96,.71-2.21,1.73l-6.19,24.97c-.17,.68-.01,1.4,.42,1.95,.43,.55,1.09,.88,1.8,.88"/><path class="cls-2" d="M41.43,65.08l6.18-24.98c.17-.68,.02-1.4-.42-1.95-.43-.55-1.09-.88-1.8-.88H17.69c-1.05,0-1.96,.71-2.21,1.73l-6.19,24.98c-.17,.68-.02,1.4,.42,1.95,.43,.55,1.09,.88,1.8,.88h27.72c1.05,0,1.96-.72,2.21-1.73"/><path class="cls-2" d="M36.18,74.5H8.46c-1.05,0-1.96,.71-2.21,1.73L.07,101.21c-.17,.68-.01,1.4,.42,1.95,.43,.55,1.09,.88,1.79,.88H30c1.05,0,1.96-.71,2.21-1.73l6.19-24.97c.17-.68,.01-1.4-.42-1.95-.43-.55-1.09-.88-1.8-.88"/><path class="cls-1" d="M60.91,29.6h27.72c1.05,0,1.96-.71,2.21-1.73l6.18-24.97c.17-.68,.01-1.4-.42-1.95-.43-.55-1.09-.88-1.79-.88h-27.72c-1.05,0-1.96,.71-2.21,1.73l-6.18,24.97c-.17,.68-.01,1.4,.42,1.95,.43,.55,1.09,.88,1.8,.88"/><path class="cls-1" d="M81.62,65.08l6.18-24.98c.17-.68,.02-1.4-.42-1.95-.43-.55-1.09-.88-1.8-.88h-27.72c-1.05,0-1.96,.71-2.21,1.73l-6.18,24.98c-.17,.68-.01,1.4,.42,1.95,.43,.55,1.09,.88,1.8,.88h27.71c1.05,0,1.96-.72,2.21-1.73"/><path class="cls-2" d="M76.37,74.5h-27.71c-1.05,0-1.96,.71-2.21,1.73l-6.19,24.97c-.17,.68-.01,1.4,.42,1.95,.43,.55,1.09,.88,1.8,.88h27.72c1.05,0,1.96-.71,2.21-1.73l6.18-24.97c.17-.68,.01-1.4-.42-1.95-.43-.55-1.09-.88-1.8-.88"/><path class="cls-1" d="M136.8,.94c-.43-.55-1.09-.87-1.8-.87h-27.72c-1.05,0-1.96,.71-2.21,1.73l-6.18,24.98c-.17,.68-.02,1.4,.42,1.95,.43,.55,1.09,.88,1.8,.88h27.71c1.05,0,1.96-.71,2.21-1.73l6.19-24.97c.17-.68,.02-1.4-.42-1.95"/><path class="cls-1" d="M125.79,37.28h-27.71c-1.05,0-1.96,.71-2.21,1.73l-6.19,24.97c-.17,.68-.01,1.4,.42,1.95,.43,.55,1.09,.87,1.79,.87h27.72c1.05,0,1.96-.71,2.21-1.73l6.19-24.97c.17-.68,.01-1.4-.42-1.95-.43-.55-1.09-.88-1.8-.88"/><path class="cls-2" d="M116.57,74.5h-27.71c-1.05,0-1.96,.71-2.21,1.73l-6.19,24.97c-.17,.68-.02,1.4,.42,1.95,.43,.55,1.09,.88,1.79,.88h27.72c1.05,0,1.96-.71,2.21-1.73l6.18-24.97c.17-.68,.01-1.4-.42-1.95-.43-.55-1.09-.88-1.8-.88"/><path class="cls-1" d="M209.97,57.15h-44.57L179.48,3.14c.2-.75,.03-1.55-.44-2.17-.47-.62-1.21-.98-1.98-.98h-11.99c-1.14,0-2.14,.77-2.43,1.87l-16.91,64.85c-.19,.75-.03,1.55,.44,2.17,.47,.61,1.21,.97,1.99,.97h59.8c1.14,0,2.14-.77,2.43-1.87l2.01-7.7c.2-.75,.03-1.55-.44-2.17-.47-.62-1.21-.98-1.98-.98"/><path class="cls-1" d="M285.59,1.87c-.29-1.1-1.29-1.87-2.43-1.87h-11.99c-.76,0-1.48,.35-1.95,.94l-52.16,64.85c-.61,.75-.72,1.78-.31,2.66,.42,.87,1.3,1.42,2.26,1.42h12.28c.76,0,1.48-.35,1.96-.94l13.43-16.77h34.38l4.04,15.83c.28,1.11,1.28,1.89,2.43,1.89h12.7c.78,0,1.51-.36,1.99-.98,.48-.62,.64-1.42,.44-2.17L285.59,1.87Zm-7.65,38.09h-21.56l9.3-11.73c2.67-3.29,5.27-6.92,7.28-9.81,.44,2.72,1.04,5.91,1.76,8.85l3.22,12.69Z"/><path class="cls-1" d="M380.04,0h-69.81c-1.14,0-2.14,.77-2.43,1.87l-2.01,7.7c-.2,.75-.03,1.55,.44,2.17,.47,.61,1.21,.97,1.98,.97h25.73l-14.08,54.01c-.2,.75-.03,1.55,.44,2.17,.47,.61,1.21,.98,1.99,.98h11.99c1.14,0,2.14-.77,2.43-1.88l14.41-55.28h26.84c1.18,0,2.22-.77,2.52-1.87l2.08-7.7c.2-.75,.04-1.55-.46-2.17-.49-.62-1.25-.98-2.06-.98"/><path class="cls-1" d="M459.08,10.84l2.01-7.7c.19-.75,.03-1.55-.44-2.17-.47-.62-1.21-.98-1.98-.98h-69.74c-1.18,0-2.22,.77-2.52,1.87l-2.08,7.7c-.2,.75-.04,1.55,.46,2.17,.49,.61,1.25,.97,2.06,.97h25.61l-14.08,54.01c-.2,.75-.03,1.55,.44,2.17,.47,.61,1.21,.98,1.98,.98h11.99c1.14,0,2.14-.77,2.43-1.88l14.41-55.28h27.03c1.14,0,2.14-.77,2.43-1.87"/><path class="cls-1" d="M486.91,.98c-.47-.61-1.21-.98-1.99-.98h-12.27c-1.14,0-2.14,.77-2.43,1.88l-16.91,64.85c-.2,.75-.03,1.55,.44,2.17,.47,.62,1.21,.97,1.98,.97h12.27c1.14,0,2.14-.77,2.43-1.88L487.35,3.14c.19-.75,.03-1.55-.44-2.17"/><path class="cls-1" d="M550.81,57.15h-26.69c-8.82,0-14.74-1.87-17.6-5.57-2.64-3.42-3-8.64-1.09-15.96,4.07-15.63,14.11-22.9,31.58-22.9h26.69c1.14,0,2.14-.77,2.43-1.87l2.01-7.7c.19-.75,.03-1.55-.44-2.17-.47-.62-1.21-.98-1.98-.98h-27.69c-25.43,0-43.96,12.84-49.57,34.35-2.57,9.87-1.42,18.35,3.35,24.51,5.56,7.2,15.7,11,29.32,11h27.69c1.14,0,2.14-.77,2.43-1.87l2.01-7.7c.2-.75,.03-1.55-.44-2.17-.47-.62-1.21-.98-1.98-.98"/><path class="cls-1" d="M647.48,.98c-.47-.61-1.21-.98-1.98-.98h-63.8c-1.14,0-2.14,.77-2.43,1.88l-16.91,64.85c-.2,.75-.03,1.55,.44,2.17,.47,.62,1.21,.97,1.98,.97h64.8c1.14,0,2.14-.77,2.43-1.88l2.01-7.7c.2-.75,.03-1.55-.44-2.17-.47-.61-1.21-.98-1.98-.98h-49.56l4.44-17.02h45.59c1.14,0,2.14-.77,2.43-1.88l1.87-7.17c.2-.75,.03-1.55-.44-2.17-.47-.62-1.21-.98-1.98-.98h-44.28l3.97-15.23h49.87c1.14,0,2.14-.77,2.43-1.88l2.01-7.7c.19-.75,.03-1.55-.44-2.17"/><path class="cls-2" d="M163.96,83.47h-11.27c-5.99,0-9.85,2.15-10.87,6.06-.42,1.6-.23,2.93,.57,3.95,1.12,1.45,3.38,2.19,6.73,2.19h5.42c1.58,0,2.54,.25,2.93,.75,.28,.36,.31,.94,.11,1.74-.61,2.32-3.1,2.81-5.08,2.81h-12.63c-.27,0-.51,.18-.58,.45l-.61,2.36c-.05,.18,0,.37,.11,.51,.11,.15,.29,.23,.47,.23h12.45c5.82,0,9.73-2.23,10.75-6.13,.43-1.66,.24-3.03-.58-4.08-1.13-1.47-3.41-2.21-6.76-2.21h-5.37c-1.62,0-2.6-.24-2.99-.74-.25-.33-.29-.84-.1-1.55,.51-1.95,2.03-2.78,5.07-2.78h11.62c.27,0,.51-.18,.58-.44l.61-2.36c.05-.18,0-.37-.1-.51-.11-.15-.29-.23-.47-.23"/><path class="cls-2" d="M202.84,83.47h-19.53c-.27,0-.51,.18-.58,.45l-5.17,19.85c-.05,.18,0,.37,.1,.51,.11,.15,.29,.23,.47,.23h19.83c.27,0,.51-.18,.57-.44l.62-2.36c.05-.18,0-.37-.1-.51-.11-.15-.28-.23-.47-.23h-15.4l1.45-5.55h14.09c.27,0,.51-.18,.58-.45l.57-2.19c.05-.18,0-.37-.1-.51-.11-.15-.29-.23-.47-.23h-13.78l1.3-5.01h15.4c.27,0,.51-.18,.58-.44l.61-2.36c.05-.18,0-.37-.1-.51-.11-.15-.29-.23-.47-.23"/><path class="cls-2" d="M247.58,83.47h-4.98c-.19,0-.37,.09-.48,.24l-9.69,13.04c-.66,.88-1.46,2.04-2.05,2.91-.14-.83-.33-1.87-.52-2.69l-3.11-13.04c-.06-.27-.3-.46-.58-.46h-4.98c-.27,0-.51,.18-.58,.45l-5.18,19.85c-.05,.18,0,.37,.1,.51,.11,.15,.29,.23,.47,.23h3.45c.27,0,.51-.18,.58-.44l3-11.49c.16-.6,.33-1.31,.48-2,.11,.6,.23,1.21,.35,1.73l2.84,11.75c.07,.27,.3,.46,.58,.46h3.67c.19,0,.36-.09,.47-.23l8.92-11.75c.37-.49,.78-1.06,1.19-1.64-.14,.48-.27,.96-.38,1.39l-2.99,11.49c-.05,.18,0,.37,.1,.51,.11,.15,.29,.23,.47,.23h3.67c.27,0,.51-.18,.58-.44l5.18-19.85c.05-.18,0-.37-.1-.51-.11-.15-.29-.23-.47-.23"/><path class="cls-2" d="M271.05,83.47h-3.76c-.27,0-.51,.18-.58,.45l-5.18,19.85c-.05,.18,0,.37,.1,.51,.11,.15,.29,.23,.47,.23h3.76c.27,0,.51-.18,.58-.44l5.18-19.85c.05-.18,0-.37-.1-.51-.11-.15-.29-.23-.47-.23"/><path class="cls-2" d="M309.75,83.47h-8.47c-7.7,0-13.31,3.88-15.01,10.39-.77,2.97-.43,5.51,.99,7.35,1.67,2.16,4.73,3.3,8.84,3.3h8.48c.27,0,.51-.18,.57-.44l.62-2.36c.05-.18,0-.37-.1-.51-.11-.15-.28-.23-.47-.23h-8.17c-2.76,0-4.62-.6-5.52-1.77-.84-1.09-.96-2.74-.36-5.03,1.27-4.87,4.39-7.14,9.83-7.14h8.17c.27,0,.51-.18,.58-.44l.61-2.36c.05-.18,0-.37-.1-.51-.11-.15-.29-.23-.47-.23"/><path class="cls-2" d="M338.83,83.22c-8.79,0-14.4,3.7-16.23,10.71-.82,3.16-.53,5.69,.87,7.5,1.71,2.22,5.08,3.35,10,3.35,8.88,0,14.32-3.55,16.14-10.55,.84-3.22,.54-5.79-.89-7.64-1.73-2.23-5.06-3.36-9.9-3.36m-4.71,18.07c-3.32,0-5.31-.57-6.26-1.8-.84-1.09-.95-2.79-.32-5.2,1.63-6.25,5.43-7.53,10.63-7.53,3.28,0,5.24,.57,6.18,1.78,.86,1.12,.96,2.9,.3,5.44-1.35,5.19-4.4,7.3-10.53,7.3"/><path class="cls-2" d="M390.75,83.47h-3.45c-.27,0-.51,.18-.58,.45l-3.83,14.7c-.22-.46-.48-.98-.75-1.46l-7.82-13.39c-.11-.18-.3-.29-.51-.29h-4.19c-.27,0-.51,.18-.58,.45l-5.17,19.85c-.04,.18,0,.37,.11,.51,.11,.15,.29,.23,.47,.23h3.45c.27,0,.51-.18,.58-.44l3.87-14.83c.24,.5,.54,1.07,.88,1.65l7.8,13.33c.11,.18,.3,.29,.51,.29h4.06c.27,0,.51-.18,.58-.44l5.17-19.85c.05-.18,0-.37-.1-.51-.11-.15-.29-.23-.47-.23"/><path class="cls-2" d="M420.73,83.48h-10.49c-.27,0-.51,.18-.58,.45l-5.18,19.85c-.04,.18,0,.37,.11,.51,.11,.15,.28,.23,.47,.23h10.44c8.28,0,13.39-3.51,15.19-10.42,.84-3.22,.57-5.76-.8-7.53-1.61-2.08-4.61-3.09-9.17-3.09m-5.09,17.49h-5.52l3.63-13.94h5.83c3.21,0,5.09,.51,5.94,1.61,.8,1.03,.84,2.74,.15,5.39-1.35,5.19-3.89,6.94-10.04,6.94"/><path class="cls-2" d="M472.19,83.47h-3.67c-.27,0-.51,.18-.58,.45l-3.12,11.97c-1.1,4.24-2.9,5.4-8.33,5.4-2.96,0-4.57-.38-5.23-1.24-.55-.71-.56-1.9-.05-3.86l3.12-11.97c.05-.18,0-.37-.1-.51-.11-.15-.29-.23-.47-.23h-3.67c-.27,0-.51,.18-.58,.45l-3.21,12.3c-.63,2.43-.4,4.37,.68,5.77,1.45,1.88,4.36,2.79,8.91,2.79,7.75,0,12.22-2.7,13.67-8.26l3.21-12.3c.05-.18,0-.37-.1-.51-.11-.15-.29-.23-.47-.23"/><path class="cls-2" d="M509.9,83.47h-8.47c-7.7,0-13.31,3.88-15.01,10.39-.77,2.97-.43,5.51,.99,7.35,1.67,2.16,4.72,3.3,8.84,3.3h8.47c.27,0,.51-.18,.58-.44l.62-2.36c.05-.18,0-.37-.11-.51-.11-.15-.28-.23-.47-.23h-8.17c-2.76,0-4.62-.6-5.52-1.77-.84-1.09-.96-2.74-.36-5.03,1.27-4.87,4.39-7.14,9.83-7.14h8.17c.27,0,.51-.18,.58-.44l.61-2.36c.05-.18,0-.37-.1-.51-.11-.15-.29-.23-.47-.23"/><path class="cls-2" d="M546.55,83.47h-21.41c-.27,0-.51,.18-.58,.45l-.61,2.36c-.04,.18,0,.37,.11,.51,.11,.15,.29,.23,.47,.23h8.1l-4.37,16.75c-.05,.18,0,.37,.1,.51,.11,.15,.29,.23,.47,.23h3.67c.27,0,.51-.18,.58-.44l4.44-17.05h8.41c.27,0,.51-.18,.58-.44l.61-2.36c.05-.18,0-.37-.1-.51-.11-.15-.29-.23-.47-.23"/><path class="cls-2" d="M575.24,83.22c-8.79,0-14.4,3.7-16.23,10.71-.83,3.16-.53,5.69,.87,7.5,1.72,2.22,5.08,3.35,10,3.35,8.88,0,14.32-3.55,16.14-10.55,.84-3.22,.54-5.79-.89-7.64-1.73-2.23-5.06-3.36-9.9-3.36m-4.71,18.07c-3.32,0-5.31-.57-6.26-1.8-.84-1.09-.95-2.79-.32-5.2,1.63-6.25,5.43-7.53,10.63-7.53,3.28,0,5.24,.57,6.18,1.78,.86,1.12,.96,2.9,.3,5.44-1.35,5.19-4.4,7.3-10.53,7.3"/><path class="cls-2" d="M625.96,85.93c-1.28-1.65-3.93-2.46-8.11-2.46h-11.84c-.27,0-.51,.18-.58,.44l-5.18,19.85c-.05,.18,0,.37,.11,.51,.11,.15,.29,.23,.47,.23h3.67c.27,0,.51-.18,.58-.45l1.84-7.04h5.05c2.01,0,2.39,.34,3.42,2.06l3.03,5.13c.11,.18,.3,.29,.51,.29h4.18c.33,0,.6-.27,.6-.6,0-.17-.07-.33-.19-.44l-3.13-5.28c-.4-.7-.75-1.23-1.15-1.66,4.06-.92,6.47-2.98,7.33-6.28,.46-1.76,.26-3.22-.6-4.32m-16.43,1.09h7.19c2.71,0,4.22,.32,4.75,1,.2,.26,.44,.77,.09,2.09-.69,2.64-2.16,3.36-6.84,3.36h-6.88l1.68-6.46Z"/></g><text class="cls-3" transform="translate(626.8 104.51)"><tspan x="0" y="0">®</tspan></text></g></g></svg>