<svg width="230" height="66" viewBox="0 0 230 66" xmlns="http://www.w3.org/2000/svg"><g fill="none"><path d="M136.332 43.782c.724 0 1.448.08 2.092.319.563.16.885.319 1.609.637l-.724 1.754c-1.207-.558-2.173-.797-2.897-.797-.966 0-1.69.398-1.69 1.036 0 .478.242.797 1.046 1.196 1.69.876 2.816 1.594 3.38 2.152.482.478.804 1.195.804 1.992 0 1.993-1.448 3.188-3.942 3.188-.322 0-.644 0-1.046-.08-.805-.08-1.207-.239-2.334-.796-.16-.08-.402-.16-.724-.32l.885-1.992c.805.478 1.127.638 1.61.797a4.39 4.39 0 001.609.319c.965 0 1.609-.478 1.609-1.116 0-.478-.241-.797-.966-1.195l-1.77-.957c-2.011-1.116-2.574-1.913-2.574-3.108 0-.558.16-1.116.402-1.515.16-.319.483-.558.804-.797.805-.558 1.53-.717 2.817-.717zm51.896-.16c3.54 0 5.954 2.312 5.954 5.74 0 3.426-2.413 5.818-5.954 5.818-3.54 0-5.954-2.392-5.954-5.819s2.414-5.739 5.954-5.739zm-111.517.08c1.448 0 2.574.319 3.54 1.036l-.805 1.674c-.724-.558-1.609-.797-2.575-.797-2.172 0-3.7 1.514-3.7 3.666 0 2.392 1.608 3.986 4.022 3.986.805 0 1.449-.16 2.495-.558l.402 1.753c-.724.319-1.046.399-1.529.558-.563.08-1.126.16-1.77.16-1.77 0-3.058-.479-4.103-1.355-1.207-1.037-1.932-2.71-1.932-4.464 0-1.594.644-3.108 1.69-4.144 1.127-1.116 2.414-1.515 4.265-1.515zm148.69.16v1.833h-4.667v2.79h3.862v1.833h-3.862v2.949h4.908V55.1h-7.08V43.862h6.839zm-94.621 0v1.833h-4.667v2.79h3.862v1.833h-3.862v2.949h4.908V55.1h-7.08V43.862h6.839zm35.16 0v1.833h-4.666v2.79h3.862v1.833h-3.862v2.949h4.908V55.1h-7.08V43.862h6.839zm42.323 0l4.747 7.332s.08.16.08.24c.081.159.081.159.081.239l.08.318.081.24v-8.37h2.012V55.1h-2.173l-4.828-7.173c0-.08-.16-.24-.24-.479-.081-.16-.081-.239-.162-.239-.08-.16-.08-.239-.16-.398v8.21h-2.012V43.86h2.494zm-37.253 0l2.977 7.97c.16.319.16.478.241.877.08-.558.08-.558.242-.877l3.138-7.97h2.574V55.02h-2.172v-8.21c-.08.559-.08.638-.402 1.595l-2.575 6.615h-1.931l-2.333-6.456c-.242-.637-.242-.797-.403-1.753v8.21h-1.93V43.86h2.574zm-53.345 0v9.325h4.586v1.833h-6.759V43.862h2.173zm35.16 0v9.325h4.587v1.833h-6.759V43.862h2.173zm44.254 0l2.253 4.383 2.333-4.383H204l-3.621 6.376v4.782h-2.173v-4.782l-3.46-6.376h2.334zm-87.782 0c1.61 0 2.414.239 3.057.797.644.558.885 1.355.885 2.39 0 .878-.24 1.595-.643 2.073-.403.558-.805.797-1.77 1.036l2.816 4.782h-2.334v.08l-2.574-4.463h-1.046v4.463h-2.173V43.862h3.782zm-24.943 0v4.463h5.793v-4.463h2.173V55.02h-2.173v-4.782h-5.793v4.782h-2.172V43.862h2.172zm15.53 0l4.103 11.158h-2.334l-.885-2.79h-3.781l-.886 2.79H93.85l4.103-11.158h1.931zm88.344 1.594c-2.172 0-3.7 1.673-3.7 3.905 0 2.232 1.608 3.906 3.7 3.906s3.702-1.674 3.702-3.906-1.61-3.905-3.702-3.905zm-41.356 3.586v1.913h-3.54v-1.913h3.54zm-47.954-2.63l-1.288 4.065h2.575l-1.287-4.065zm10.138-.797h-1.368v3.109h1.368c1.367 0 1.93-.479 1.93-1.595 0-1.036-.563-1.514-1.93-1.514zm17.46-19.527c.804 0 1.77.08 2.333.239a8.3 8.3 0 011.368.558L129.653 28c-.241-.16-.482-.24-.563-.32-.644-.238-1.529-.478-2.414-.478-1.609 0-2.574.399-3.46 1.435-.724.797-1.126 1.913-1.126 2.95 0 2.71 2.092 4.622 4.908 4.622.563 0 .966-.08 1.85-.24v-3.745h1.369v4.543c-.322.398-.564.478-.805.478-.805.24-1.931.399-2.816.399-3.38 0-6.035-2.55-6.035-5.819 0-3.347 2.495-5.738 5.954-5.738zm-39.346 0c3.3 0 5.633 2.39 5.633 5.738 0 3.428-2.334 5.819-5.633 5.819s-5.632-2.471-5.632-5.819c0-3.347 2.414-5.738 5.632-5.738zm-10.299-.08c.725 0 1.449.08 2.092.398.483.16.725.32 1.288.718l-.644 1.036c-.885-.558-1.69-.877-2.736-.877-2.413 0-4.103 1.833-4.103 4.384 0 2.79 1.69 4.623 4.345 4.623.965 0 1.69-.16 2.575-.558l.402 1.116c-.644.318-.966.398-1.529.558-.563.159-1.046.159-1.529.159-3.379 0-5.793-2.391-5.793-5.818 0-3.268 2.414-5.74 5.632-5.74zm41.92.239v1.196h-4.988v3.746h4.103v1.195h-4.103v3.906h5.069v1.195h-6.437V26.247h6.356zm21.242 0v1.196h-4.908v3.746h4.103v1.195h-4.103v3.906h5.069v1.195h-6.518V26.247h6.357zm-43.127 0v9.963h5.069v1.196h-6.437V26.247h1.368zm8.448 0v9.963h4.989v1.196h-6.356V26.247h1.367zM87.17 27.283c-2.253 0-4.103 2.072-4.103 4.543 0 2.55 1.85 4.543 4.103 4.543 2.253 0 4.104-2.072 4.104-4.543 0-2.47-1.85-4.543-4.104-4.543zm28-3.905l1.61 1.992h-1.207l-1.931-1.992h1.529z" fill="#FFF"/><path d="M14.413 41.839V17.934c0-4.91 4.135-8.934 9.18-8.934H12.18C7.135 9 3 13.024 3 17.934v23.905c0 4.91 4.135 8.934 9.18 8.934h11.495c-5.127 0-9.262-4.025-9.262-8.934z" fill="#92342F"/><path d="M33.517 41.839V17.934c0-4.91 4.135-8.934 9.18-8.934H31.2c-5.044 0-9.18 4.024-9.18 8.934v23.905c0 4.91 4.136 8.934 9.18 8.934h11.496c-5.045 0-9.18-4.025-9.18-8.934z" fill="#D59F0F"/><path d="M53.365 18.994v26.905c0 4.93 4.136 8.97 9.18 8.97H51.05c-5.045 0-9.18-4.04-9.18-8.97V18.994c0-1.616.662-5.899 5.872-5.899s5.623 4.444 5.623 5.899z" fill="#00553D"/></g></svg>